<svg width="116" height="116" viewBox="0 0 116 116" fill="none" xmlns="http://www.w3.org/2000/svg">
<circle cx="58" cy="58" r="50" stroke="#005C83" stroke-width="15"/>
<path d="M18.0708 88.0942C23.0199 94.6606 29.5119 99.9051 36.972 103.363C44.432 106.821 52.6297 108.386 60.839 107.919C69.0483 107.452 77.0157 104.968 84.0356 100.687C91.0554 96.4051 96.911 90.4583 101.084 83.3732C105.256 76.288 107.617 68.2832 107.957 60.0676C108.297 51.8521 106.606 43.6795 103.033 36.2738C99.4601 28.8681 94.116 22.4578 87.4739 17.6108C80.8319 12.7638 73.097 9.62964 64.9543 8.48599" stroke="#00263F" stroke-width="15" stroke-linecap="round"/>
<path d="M83 55.2225L71.9762 52.2113L77.6413 42.2888L73.7137 38.3575L64.2212 43.7775L60.7775 33H55.2225L51.9225 43.33L42.2875 38.3575L38.3587 42.2888L43.33 51.9238L33 55.2225V60.7775L43.3287 64.0763L38.3575 73.7113L42.2863 77.6425L51.9212 72.67L55.2225 83H60.7775L64.0763 72.67L73.7125 77.6425L77.64 73.7113L72.4538 63.6575L83 60.7775V55.2225ZM58 69.1113C51.8625 69.1113 46.8888 64.1363 46.8888 58C46.8888 51.8638 51.8625 46.8888 58 46.8888C64.1362 46.8888 69.1113 51.8638 69.1113 58C69.1113 64.1363 64.1362 69.1113 58 69.1113Z" fill="#00263F"/>
<path d="M58 39.25C47.645 39.25 39.25 47.645 39.25 58C39.25 68.355 47.645 76.75 58 76.75C68.355 76.75 76.75 68.355 76.75 58C76.75 47.645 68.355 39.25 58 39.25Z" fill="#005C83"/>
<path d="M52.15 61.6912H48.7238L48.0575 64.25H45.4L49.2875 51.75H51.5863L55.5 64.25H52.8175L52.15 61.6912ZM49.2713 59.59H51.595L50.4325 55.1325L49.2713 59.59ZM69.25 64.25H66.75V51.75H69.25V64.25ZM59.2625 59.855V64.25H56.75V51.75H60.9888C62.2188 51.75 63.2013 52.1325 63.9313 52.9C64.6638 53.6675 65.03 54.6637 65.03 55.8875C65.03 57.1112 64.6675 58.0775 63.945 58.7887C63.2213 59.5 62.2188 59.8537 60.9375 59.8537H59.2625V59.855ZM59.2625 57.75H60.9888C61.4675 57.75 61.8375 57.5925 62.1 57.2787C62.3613 56.965 62.4925 56.5062 62.4925 55.905C62.4925 55.2825 62.3575 54.7863 62.0913 54.4138C61.8225 54.0463 61.4638 53.86 61.015 53.855H59.2625V57.75Z" fill="white"/>
</svg>
