<svg width="116" height="116" viewBox="0 0 116 116" fill="none" xmlns="http://www.w3.org/2000/svg">
<path d="M61.9497 53.4826C61.9497 51.5642 60.5955 50.5052 58.217 50.5052H53.842V56.6858H57.5313C60.3785 56.6771 61.9497 55.5312 61.9497 53.4826ZM77.8785 52.3715C77.0538 49.6892 76.9323 46.3993 77.0278 43.8559C77.1233 41.2083 75.0573 38.7778 72.2795 38.7778H43.7379C40.9514 38.7778 38.8941 41.217 38.9896 43.8559C39.0764 46.3993 38.9636 49.6892 38.1389 52.3715C37.3056 55.0625 35.908 56.7639 33.6077 56.9809V59.4549C35.8993 59.6719 37.3056 61.3733 38.1389 64.0642C38.9636 66.7465 39.0851 70.0364 38.9896 72.5799C38.8941 75.2274 40.9601 77.658 43.7379 77.658H72.2709C75.0573 77.658 77.1146 75.2187 77.0191 72.5799C76.9323 70.0364 77.0452 66.7465 77.8698 64.0642C78.7032 61.3733 80.1007 59.6719 82.3924 59.4549V56.9809C80.1094 56.7639 78.7032 55.0625 77.8785 52.3715ZM59.0591 68.5608H50.5608V47.875H59.0157C62.7743 47.875 65.2396 49.9062 65.2396 53.0312C65.2396 55.2274 63.5816 57.1892 61.4636 57.5278V57.6406C64.3455 57.9531 66.2813 59.9496 66.2813 62.7014C66.2813 66.3559 63.5643 68.5608 59.0591 68.5608ZM58.191 59.125H53.842V65.9305H58.382C61.3507 65.9305 62.9219 64.7413 62.9219 62.5017C62.9219 60.2708 61.3073 59.125 58.191 59.125Z" fill="#7952B3"/>
<circle cx="58" cy="58" r="50" stroke="#7952B3" stroke-opacity="0.4" stroke-width="15"/>
<path d="M10.2045 43.3171C7.18448 53.1477 7.26927 63.6705 10.4473 73.4512C13.6253 83.2319 19.7419 91.7947 27.9635 97.9726C36.1851 104.151 46.1118 107.643 56.3905 107.974C66.6692 108.305 76.8 105.459 85.4021 99.8226C94.0042 94.1865 100.659 86.035 104.46 76.4791C108.261 66.9231 109.022 56.4277 106.641 46.4231C104.26 36.4185 98.8519 27.3915 91.1538 20.5724C83.4556 13.7533 73.842 9.47381 63.6232 8.31721" stroke="#7952B3" stroke-width="15" stroke-linecap="round"/>
</svg>
