<svg width="116" height="116" viewBox="0 0 116 116" fill="none" xmlns="http://www.w3.org/2000/svg">
<path d="M38 34.3333L41.6354 75.5625L58 81L74.3646 75.5625L78 34.3333H38ZM70.6146 42.6666L70.1146 47.5937L58.1042 52.7291L58.0729 52.7396H69.6875L68.3542 68.0104L58.125 71L47.8333 67.9583L47.1667 60.2604H52.2604L52.5938 64.25L58.0729 65.6354L63.7708 64.0312L64.1562 57.6146L46.8333 57.5625V57.5521L46.8125 57.5625L46.4375 52.7396L58.1146 47.875L58.7917 47.5937H45.9896L45.3854 42.6666H70.6146Z" fill="#15AABF"/>
<circle cx="58" cy="58" r="50" stroke="#15AABF" stroke-opacity="0.4" stroke-width="15"/>
<path d="M28.4713 17.6508C19.1363 24.4824 12.4589 34.3395 9.57677 45.5424C6.69465 56.7454 7.78617 68.6011 12.6653 79.0895C17.5445 89.578 25.9095 98.0501 36.3349 103.062C46.7603 108.075 58.6012 109.317 69.84 106.578C81.0787 103.839 91.02 97.2873 97.9699 88.0401C104.92 78.7928 108.448 67.4218 107.954 55.8646C107.46 44.3074 102.974 33.279 95.2606 24.6586C87.5469 16.0382 77.0828 10.3591 65.6513 8.58889" stroke="#15AABF" stroke-width="15" stroke-linecap="round"/>
</svg>
