<svg width="50" height="50" viewBox="0 0 50 50" fill="none" xmlns="http://www.w3.org/2000/svg">
<circle cx="25" cy="25" r="25" fill="white"/>
<path d="M19.7067 35.0423C19.7067 35.1835 19.5444 35.2964 19.3397 35.2964C19.1069 35.3175 18.9446 35.2046 18.9446 35.0423C18.9446 34.9012 19.1069 34.7883 19.3115 34.7883C19.5232 34.7671 19.7067 34.88 19.7067 35.0423ZM17.5121 34.7248C17.4627 34.8659 17.6038 35.0282 17.8155 35.0706C17.999 35.1411 18.2107 35.0706 18.253 34.9294C18.2954 34.7883 18.1613 34.626 17.9496 34.5625C17.7661 34.5131 17.5615 34.5837 17.5121 34.7248ZM20.631 34.6048C20.4264 34.6542 20.2853 34.7883 20.3065 34.9506C20.3276 35.0917 20.5111 35.1835 20.7228 35.1341C20.9274 35.0847 21.0685 34.9506 21.0474 34.8095C21.0262 34.6754 20.8357 34.5837 20.631 34.6048ZM25.2742 7.56451C15.4869 7.56451 8 14.995 8 24.7823C8 32.6079 12.9254 39.3044 19.9607 41.6613C20.8639 41.8236 21.1815 41.2661 21.1815 40.8075C21.1815 40.37 21.1603 37.9566 21.1603 36.4748C21.1603 36.4748 16.2208 37.5333 15.1835 34.372C15.1835 34.372 14.379 32.3185 13.2218 31.7893C13.2218 31.7893 11.6058 30.6814 13.3347 30.7026C13.3347 30.7026 15.0917 30.8437 16.0585 32.5232C17.6038 35.247 20.1935 34.4637 21.2026 33.998C21.3649 32.8689 21.8236 32.0857 22.3317 31.62C18.3871 31.1825 14.4073 30.6109 14.4073 23.8226C14.4073 21.8821 14.9435 20.9083 16.0726 19.6663C15.8891 19.2077 15.2893 17.3165 16.256 14.875C17.7308 14.4163 21.125 16.7802 21.125 16.7802C22.5363 16.3851 24.0534 16.1804 25.5565 16.1804C27.0595 16.1804 28.5766 16.3851 29.9879 16.7802C29.9879 16.7802 33.3821 14.4093 34.8569 14.875C35.8236 17.3236 35.2238 19.2077 35.0403 19.6663C36.1694 20.9153 36.8609 21.8891 36.8609 23.8226C36.8609 30.6321 32.7046 31.1754 28.7601 31.62C29.4093 32.1774 29.9597 33.2359 29.9597 34.8941C29.9597 37.2722 29.9385 40.2147 29.9385 40.7933C29.9385 41.252 30.2631 41.8095 31.1593 41.6472C38.2157 39.3044 43 32.6079 43 24.7823C43 14.995 35.0615 7.56451 25.2742 7.56451ZM14.8589 31.9022C14.7671 31.9728 14.7883 32.1351 14.9083 32.2691C15.0212 32.3821 15.1835 32.4314 15.2752 32.3397C15.3669 32.2691 15.3458 32.1068 15.2258 31.9728C15.1129 31.8599 14.9506 31.8105 14.8589 31.9022ZM14.0968 31.3306C14.0474 31.4224 14.1179 31.5353 14.2591 31.6058C14.372 31.6764 14.5131 31.6552 14.5625 31.5564C14.6119 31.4647 14.5413 31.3518 14.4002 31.2812C14.2591 31.2389 14.1462 31.2601 14.0968 31.3306ZM16.3831 33.8427C16.2702 33.9345 16.3125 34.1462 16.4748 34.2802C16.6371 34.4425 16.8417 34.4637 16.9335 34.3508C17.0252 34.2591 16.9829 34.0474 16.8417 33.9133C16.6865 33.751 16.4748 33.7298 16.3831 33.8427ZM15.5786 32.8054C15.4657 32.876 15.4657 33.0595 15.5786 33.2218C15.6915 33.3841 15.8821 33.4546 15.9738 33.3841C16.0867 33.2923 16.0867 33.1089 15.9738 32.9466C15.875 32.7843 15.6915 32.7137 15.5786 32.8054Z" fill="#005C83"/>
</svg>
