<svg width="116" height="116" viewBox="0 0 116 116" fill="none" xmlns="http://www.w3.org/2000/svg">
<path d="M38 34.3333L41.6354 75.5625L57.9479 81L74.3646 75.5625L78 34.3333H38ZM70.1042 47.6562H50.9583L51.3854 52.8021H69.6771L68.2604 68.2604L58.0625 71.0729V71.1041H57.9479L47.6667 68.2604L47.0417 60.3646H52.0104L52.375 64.3333L57.9479 65.8437L63.5417 64.3333L64.1667 57.8541H46.7812L45.4479 42.6875H70.5625L70.1042 47.6562Z" fill="#FD7414"/>
<circle cx="58" cy="58" r="50" stroke="#FD7414" stroke-opacity="0.4" stroke-width="15"/>
<path d="M32.9922 14.7032C22.7263 20.6327 14.9013 30.017 10.9135 41.1814C6.92577 52.3458 7.03471 64.564 11.2209 75.6556C15.4072 86.7471 23.3983 95.9904 33.7682 101.736C44.1382 107.481 56.2123 109.355 67.8359 107.023C79.4595 104.691 89.8763 98.3044 97.2274 89.0034C104.578 79.7024 108.385 68.092 107.969 56.2441C107.553 44.3961 102.94 33.0816 94.9544 24.3195C86.9686 15.5575 76.1292 9.918 64.3706 8.4075" stroke="#FD7414" stroke-width="15" stroke-linecap="round"/>
</svg>
