<svg width="50" height="50" viewBox="0 0 50 50" fill="none" xmlns="http://www.w3.org/2000/svg">
<circle cx="25" cy="25" r="25" fill="white"/>
<path d="M18.596 36H13.4129V19.3091H18.596V36ZM16.0017 17.0324C14.3443 17.0324 13 15.6596 13 14.0022C13 13.2061 13.3162 12.4426 13.8792 11.8797C14.4421 11.3168 15.2056 11.0005 16.0017 11.0005C16.7978 11.0005 17.5613 11.3168 18.1242 11.8797C18.6871 12.4426 19.0033 13.2061 19.0033 14.0022C19.0033 15.6596 17.6585 17.0324 16.0017 17.0324ZM37.9944 36H32.8225V27.875C32.8225 25.9386 32.7835 23.4553 30.1278 23.4553C27.433 23.4553 27.0201 25.5591 27.0201 27.7355V36H21.8426V19.3091H26.8136V21.5859H26.8862C27.5781 20.2745 29.2684 18.8906 31.7902 18.8906C37.0357 18.8906 38 22.3449 38 26.8315V36H37.9944Z" fill="#005C83"/>
</svg>
