<svg width="116" height="116" viewBox="0 0 116 116" fill="none" xmlns="http://www.w3.org/2000/svg">
<path d="M73.7143 37.8572H42.2857C39.9196 37.8572 38 39.7768 38 42.1429V73.5715C38 75.9375 39.9196 77.8572 42.2857 77.8572H73.7143C76.0804 77.8572 78 75.9375 78 73.5715V42.1429C78 39.7768 76.0804 37.8572 73.7143 37.8572ZM59.7679 69.0536C59.7679 72.9465 57.4821 74.7233 54.1518 74.7233C51.1429 74.7233 49.4018 73.1697 48.5089 71.2857L51.5714 69.4375C52.1607 70.4822 52.6964 71.3661 53.9911 71.3661C55.2232 71.3661 56.0089 70.884 56.0089 69V56.2232H59.7679V69.0536ZM68.6607 74.7233C65.1696 74.7233 62.9107 73.0625 61.8125 70.884L64.875 69.1161C65.6786 70.4286 66.7321 71.4018 68.5804 71.4018C70.1339 71.4018 71.1339 70.625 71.1339 69.5447C71.1339 68.259 70.1161 67.8036 68.3929 67.0447L67.4554 66.6429C64.7411 65.4911 62.9464 64.0357 62.9464 60.9732C62.9464 58.1518 65.0982 56.009 68.4464 56.009C70.8393 56.009 72.5536 56.8393 73.7857 59.0179L70.8571 60.8929C70.2143 59.7411 69.5179 59.2857 68.4375 59.2857C67.3393 59.2857 66.6429 59.9822 66.6429 60.8929C66.6429 62.0179 67.3393 62.4732 68.9554 63.1786L69.8929 63.5804C73.0893 64.9465 74.8839 66.3482 74.8839 69.4911C74.8839 72.8661 72.2232 74.7233 68.6607 74.7233Z" fill="#F7DF1E"/>
<circle cx="58" cy="58" r="50" stroke="#F7DF1E" stroke-opacity="0.4" stroke-width="15"/>
<path d="M11.7339 39.041C7.76431 48.728 6.93545 59.4166 9.36415 69.5997C11.7928 79.7829 17.3566 88.9469 25.2709 95.7995C33.1852 102.652 43.0507 106.848 53.4766 107.795C63.9024 108.742 74.3625 106.393 83.3821 101.078C92.4016 95.764 99.5256 87.7526 103.75 78.1738C107.973 68.595 109.084 57.932 106.925 47.6883C104.766 37.4446 99.4462 28.1369 91.7156 21.0777C83.985 14.0185 74.2336 9.56381 63.8364 8.34181" stroke="#F7DF1E" stroke-width="15" stroke-linecap="round"/>
</svg>
