<svg width="31" height="454" viewBox="0 0 31 454" fill="none" xmlns="http://www.w3.org/2000/svg">
<line x1="15.5" y1="422.5" x2="15.5" y2="29.5" stroke="white" stroke-width="3" stroke-linecap="round"/>
<path d="M11.5386 8.83455C12.7623 5.71141 17.2377 5.71141 18.4614 8.83455C18.8329 9.78272 19.6045 10.5337 20.5658 10.8696C23.6862 11.9602 23.6862 16.3732 20.5658 17.4637C19.6045 17.7997 18.8329 18.5506 18.4614 19.4988C17.2377 22.6219 12.7623 22.6219 11.5386 19.4988C11.1671 18.5506 10.3955 17.7997 9.43421 17.4637C6.31376 16.3732 6.31376 11.9602 9.43421 10.8696C10.3955 10.5337 11.1671 9.78272 11.5386 8.83455Z" fill="white"/>
<path d="M12.5386 433.835C13.7623 430.711 18.2377 430.711 19.4614 433.835V433.835C19.8329 434.783 20.6045 435.534 21.5658 435.87V435.87C24.6862 436.96 24.6862 441.373 21.5658 442.464V442.464C20.6045 442.8 19.8329 443.551 19.4614 444.499V444.499C18.2377 447.622 13.7623 447.622 12.5386 444.499V444.499C12.1671 443.551 11.3955 442.8 10.4342 442.464V442.464C7.31376 441.373 7.31376 436.96 10.4342 435.87V435.87C11.3955 435.534 12.1671 434.783 12.5386 433.835V433.835Z" fill="white"/>
</svg>
