<svg width="32" height="23" viewBox="0 0 32 23" fill="none" xmlns="http://www.w3.org/2000/svg">
<path d="M6.36285 22.4434H6.86285V21.9434V12.9585L12.0632 13.8289V19.262C12.0632 21.019 13.4876 22.4434 15.2447 22.4434C17.0017 22.4434 18.4261 21.019 18.4261 19.262V1V0.5H17.9261H12.5632H12.0632V1V9.13634L6.86285 8.33536V3.68143C6.86285 1.92437 5.43848 0.5 3.68143 0.5C1.92437 0.5 0.5 1.92437 0.5 3.68142V21.9434V22.4434H1H6.36285Z" fill="black" stroke="#61DAFB"/>
<path d="M15.5327 5.62703V6.12703H16.0327H20.3552V19.2755C20.3552 21.0251 21.7736 22.4434 23.5231 22.4434C25.2727 22.4434 26.6911 21.0251 26.6911 19.2755V6.12703H28.6866C30.2404 6.12703 31.5001 4.86738 31.5001 3.31351C31.5001 1.75965 30.2404 0.5 28.6866 0.5H16.0327H15.5327V1V5.62703Z" fill="black" stroke="#61DAFB"/>
</svg>
