<svg width="37" height="26" viewBox="0 0 37 26" fill="none" xmlns="http://www.w3.org/2000/svg">
<path d="M7.25666 24.5409H7.75666V24.0409V14.0914L13.9904 15.0753V20.9126C13.9904 22.9164 15.6149 24.5409 17.6188 24.5409C19.6226 24.5409 21.2471 22.9164 21.2471 20.9126V1V0.5H20.7471H14.4904H13.9904V1V10.0146L7.75666 9.10921V4.12833C7.75666 2.12446 6.1322 0.5 4.12833 0.5C2.12446 0.5 0.5 2.12446 0.5 4.12833V24.0409V24.5409H1H7.25666Z" fill="white" stroke="#61DAFB"/>
<path d="M18.0381 6.09043V6.59043H18.5381H23.6644V20.9283C23.6644 22.9235 25.2818 24.5409 27.2769 24.5409C29.2721 24.5409 30.8895 22.9235 30.8895 20.9283V6.59043H33.4548C35.1366 6.59043 36.5 5.22704 36.5 3.54522C36.5 1.86339 35.1366 0.5 33.4548 0.5H18.5381H18.0381V1V6.09043Z" fill="white" stroke="#61DAFB"/>
</svg>
