<svg width="81" height="54" viewBox="0 0 81 54" fill="none" xmlns="http://www.w3.org/2000/svg">
<path d="M14.957 52.8984H15.457V52.3984V29.4835L30.5938 31.8726V45.4199C30.5938 49.5502 33.942 52.8984 38.0723 52.8984C42.2025 52.8984 45.5508 49.5502 45.5508 45.4199V1V0.5H45.0508H31.0938H30.5938V1V21.8206L15.457 19.6221V7.97852C15.457 3.84825 12.1088 0.5 7.97852 0.5C3.84825 0.5 0.5 3.84825 0.5 7.97852V52.3984V52.8984H1H14.957Z" fill="white" stroke="#61DAFB"/>
<path d="M39.623 12.3555V12.8555H40.123H52.1738V45.4551C52.1738 49.5659 55.5063 52.8984 59.6172 52.8984C63.728 52.8984 67.0605 49.5659 67.0605 45.4551V12.8555H73.3984C76.8103 12.8555 79.5762 10.0896 79.5762 6.67773C79.5762 3.26587 76.8103 0.5 73.3984 0.5H40.123H39.623V1V12.3555Z" fill="white" stroke="#61DAFB"/>
</svg>
