<svg width="116" height="116" viewBox="0 0 116 116" fill="none" xmlns="http://www.w3.org/2000/svg">
<path d="M73.8398 50.3047C73.3125 50.1289 72.7852 49.9629 72.2578 49.8066C72.3457 49.4453 72.4238 49.084 72.502 48.7227C73.7031 42.9023 72.9121 38.2246 70.2461 36.6816C67.6777 35.207 63.4883 36.7402 59.25 40.4316C58.8301 40.793 58.4199 41.1738 58.0293 41.5547C57.7656 41.3008 57.4922 41.0469 57.2188 40.8027C52.7754 36.8574 48.3223 35.1973 45.6563 36.75C43.0977 38.2344 42.3359 42.6387 43.4102 48.1465C43.5176 48.6934 43.6348 49.2305 43.7715 49.7773C43.1465 49.9531 42.5312 50.1484 41.9551 50.3535C36.7402 52.1602 33 55.0117 33 57.9609C33 61.0078 36.9844 64.0645 42.4043 65.9199C42.8438 66.0664 43.2832 66.2129 43.7324 66.3398C43.5859 66.9258 43.459 67.502 43.3418 68.0977C42.3164 73.5176 43.1172 77.8145 45.6758 79.2891C48.3125 80.8125 52.7461 79.25 57.0625 75.4707C57.4043 75.168 57.7461 74.8555 58.0879 74.5234C58.5176 74.9434 58.9668 75.3438 59.416 75.7344C63.5957 79.3281 67.7266 80.7832 70.2754 79.3086C72.9121 77.7852 73.7715 73.166 72.6582 67.541C72.5703 67.1113 72.4727 66.6719 72.3652 66.2227C72.6777 66.1348 72.9805 66.0371 73.2832 65.9395C78.918 64.0742 83 61.0566 83 57.9609C83 55.002 79.1523 52.1309 73.8398 50.3047ZM60.627 42.0137C64.2598 38.8496 67.6484 37.6094 69.1914 38.498C70.8418 39.4453 71.4766 43.2734 70.4414 48.3027C70.373 48.6348 70.3047 48.957 70.2168 49.2793C68.0488 48.791 65.8516 48.4395 63.6445 48.2441C62.375 46.4277 60.9883 44.6895 59.4844 43.0586C59.8652 42.6973 60.2363 42.3555 60.627 42.0137ZM49.3281 63.0293C49.8262 63.8789 50.334 64.7285 50.8711 65.5586C49.3477 65.3926 47.834 65.1484 46.3398 64.8262C46.7695 63.4199 47.3066 61.9648 47.9316 60.4805C48.3809 61.3398 48.8398 62.1895 49.3281 63.0293ZM46.3691 51.2813C47.7754 50.9688 49.2695 50.7148 50.8223 50.5195C50.3047 51.3301 49.7969 52.1602 49.3184 53C48.8398 53.8301 48.3711 54.6797 47.9316 55.5391C47.3164 54.084 46.7988 52.6582 46.3691 51.2813ZM49.0449 58.0098C49.6895 56.6621 50.3926 55.3438 51.1348 54.0449C51.877 52.7461 52.6777 51.4863 53.5176 50.2461C54.9824 50.1387 56.4766 50.0801 58 50.0801C59.5234 50.0801 61.0273 50.1387 62.4824 50.2461C63.3125 51.4766 64.1035 52.7363 64.8555 54.0254C65.6074 55.3145 66.3105 56.6328 66.9746 57.9707C66.3203 59.3184 65.6172 60.6465 64.8652 61.9551C64.123 63.2539 63.332 64.5137 62.502 65.7637C61.0469 65.8711 59.5332 65.9199 58 65.9199C56.4668 65.9199 54.9824 65.8711 53.5469 65.7832C52.6973 64.543 51.8965 63.2734 51.1445 61.9746C50.3926 60.6758 49.6992 59.3574 49.0449 58.0098ZM66.6816 63.0098C67.1797 62.1504 67.6484 61.2813 68.1074 60.4023C68.7324 61.8184 69.2793 63.2539 69.7578 64.7285C68.2441 65.0703 66.7109 65.334 65.168 65.5098C65.6953 64.6895 66.1934 63.8496 66.6816 63.0098ZM68.0879 55.5391C67.6289 54.6797 67.1602 53.8203 66.6719 52.9805C66.1934 52.1504 65.6953 51.3301 65.1777 50.5195C66.75 50.7148 68.2539 50.9785 69.6602 51.3008C69.2109 52.7461 68.6836 54.1523 68.0879 55.5391ZM58.0195 44.5527C59.0449 45.666 60.0117 46.8379 60.9102 48.0488C58.9766 47.9609 57.0332 47.9609 55.0996 48.0488C56.0566 46.7891 57.043 45.6172 58.0195 44.5527ZM46.6914 38.5664C48.332 37.6094 51.9746 38.9766 55.8125 42.375C56.0566 42.5898 56.3008 42.8242 56.5547 43.0586C55.041 44.6895 53.6445 46.4277 52.3652 48.2441C50.1582 48.4395 47.9707 48.7813 45.8027 49.2598C45.6758 48.7617 45.5684 48.2539 45.4609 47.7461C44.543 43.0195 45.1484 39.4551 46.6914 38.5664ZM44.2988 64.3086C43.8887 64.1914 43.4883 64.0645 43.0879 63.9277C41.0078 63.2734 38.6445 62.2383 36.9355 60.8809C35.9492 60.1973 35.2852 59.1426 35.0996 57.9609C35.0996 56.1738 38.1855 53.8887 42.6387 52.3359C43.1953 52.1406 43.7617 51.9648 44.3281 51.7988C44.9922 53.918 45.793 55.998 46.7207 58.0098C45.7832 60.0508 44.9727 62.1602 44.2988 64.3086ZM55.6855 73.8789C54.0742 75.3535 52.209 76.5254 50.1777 77.3262C49.0938 77.8438 47.8438 77.8926 46.7305 77.4531C45.1777 76.5547 44.5332 73.1074 45.4121 68.4688C45.5195 67.9219 45.6367 67.375 45.7734 66.8379C47.9609 67.3066 50.168 67.6289 52.4043 67.7949C53.6934 69.6211 55.1094 71.3691 56.623 73.0098C56.3105 73.3125 55.998 73.6055 55.6855 73.8789ZM58.0781 71.5059C57.082 70.4316 56.0859 69.2402 55.1191 67.9609C56.0566 68 57.0234 68.0195 58 68.0195C59.0059 68.0195 59.9922 68 60.9688 67.9512C60.0703 69.1914 59.1035 70.3731 58.0781 71.5059ZM70.8418 74.4356C70.7539 75.627 70.168 76.7402 69.2305 77.4922C67.6777 78.3906 64.3672 77.2188 60.793 74.1523C60.3828 73.8008 59.9727 73.4199 59.5527 73.0293C61.0469 71.3789 62.4238 69.6309 63.6738 67.7949C65.9102 67.6094 68.1367 67.2676 70.334 66.7695C70.4316 67.1699 70.5195 67.5703 70.5977 67.9609C71.0762 70.0703 71.1543 72.2676 70.8418 74.4356ZM72.6191 63.9375C72.3457 64.0254 72.0723 64.1133 71.7891 64.1914C71.1055 62.0625 70.2656 59.9824 69.2988 57.9609C70.2363 55.9688 71.0273 53.918 71.6914 51.8184C72.1992 51.9648 72.6875 52.1211 73.1562 52.2773C77.707 53.8398 80.9004 56.1641 80.9004 57.9414C80.9004 59.8555 77.4922 62.3262 72.6191 63.9375ZM58 62.4727C60.4707 62.4727 62.4727 60.4707 62.4727 58C62.4727 55.5293 60.4707 53.5273 58 53.5273C55.5293 53.5273 53.5273 55.5293 53.5273 58C53.5273 60.4707 55.5293 62.4727 58 62.4727Z" fill="#61DAFB"/>
<circle cx="58" cy="58" r="50" stroke="#61DAFB" stroke-opacity="0.4" stroke-width="15"/>
<path d="M9.70125 70.9318C12.0136 79.5681 16.5993 87.4265 22.9808 93.6883C29.3623 99.9501 37.306 104.386 45.9846 106.535C54.6631 108.683 63.759 108.466 72.3248 105.904C80.8906 103.343 88.6129 98.5313 94.6873 91.9712C100.762 85.4111 104.966 77.3422 106.862 68.6051C108.759 59.868 108.278 50.7822 105.469 42.2942C102.661 33.8062 97.6279 26.2264 90.8947 20.3445C84.1615 14.4625 75.9743 10.4936 67.1859 8.85105" stroke="#61DAFB" stroke-width="15" stroke-linecap="round"/>
</svg>
