<svg width="50" height="50" viewBox="0 0 50 50" fill="none" xmlns="http://www.w3.org/2000/svg">
<circle cx="25" cy="25" r="25" fill="white"/>
<path d="M39.4022 18.3712C39.4245 18.6821 39.4245 18.9931 39.4245 19.304C39.4245 28.7868 32.2069 39.7132 19.0152 39.7132C14.9511 39.7132 11.1758 38.5361 8 36.4931C8.57743 36.5597 9.13258 36.5819 9.73223 36.5819C13.0856 36.5819 16.1726 35.4493 18.6377 33.5172C15.4841 33.4505 12.8413 31.3852 11.9308 28.5425C12.375 28.6091 12.8191 28.6536 13.2855 28.6536C13.9296 28.6536 14.5736 28.5647 15.1732 28.4093C11.8864 27.743 9.42126 24.856 9.42126 21.3693V21.2805C10.3762 21.8135 11.4867 22.1466 12.6636 22.191C10.7315 20.9029 9.46569 18.7043 9.46569 16.217C9.46569 14.8846 9.82096 13.6631 10.4428 12.5971C13.9739 16.9499 19.2817 19.7925 25.2334 20.1034C25.1224 19.5704 25.0557 19.0153 25.0557 18.4601C25.0557 14.507 28.2537 11.2869 32.229 11.2869C34.2943 11.2869 36.1598 12.153 37.4701 13.5521C39.0912 13.2412 40.6458 12.6415 42.0227 11.8199C41.4897 13.4855 40.3571 14.8846 38.8692 15.7729C40.3127 15.6175 41.7118 15.2177 42.9999 14.6625C42.0229 16.0838 40.8014 17.3496 39.4022 18.3712Z" fill="#005C83"/>
</svg>
