<svg width="597" height="633" viewBox="0 0 597 633" fill="none" xmlns="http://www.w3.org/2000/svg">
<g clip-path="url(#clip0)">
<path d="M596.431 140.392H593.185V51.4673C593.185 44.7085 591.854 38.0159 589.267 31.7716C586.681 25.5273 582.89 19.8536 578.111 15.0744C573.332 10.2953 567.658 6.5042 561.414 3.91773C555.169 1.33125 548.477 5.33025e-06 541.718 1.44048e-10H353.319C346.56 -1.59902e-05 339.867 1.33121 333.623 3.91766C327.379 6.50412 321.705 10.2952 316.926 15.0743C312.147 19.8535 308.356 25.5272 305.769 31.7715C303.183 38.0158 301.851 44.7084 301.851 51.4671V539.315C301.851 552.965 307.274 566.056 316.926 575.708C326.578 585.36 339.669 590.783 353.319 590.783H541.718C555.368 590.783 568.459 585.36 578.111 575.708C587.763 566.057 593.185 552.966 593.185 539.316V203.69H596.431L596.431 140.392Z" fill="#3F3D56"/>
<path d="M543.795 13.3899H519.202C520.333 16.1626 520.765 19.1709 520.459 22.1497C520.154 25.1285 519.12 27.9865 517.45 30.4719C515.78 32.9572 513.524 34.9937 510.881 36.4018C508.238 37.81 505.29 38.5466 502.295 38.5469H394.364C391.37 38.5466 388.421 37.81 385.778 36.4019C383.136 34.9937 380.88 32.9572 379.209 30.4719C377.539 27.9865 376.506 25.1285 376.2 22.1497C375.895 19.1709 376.326 16.1626 377.457 13.3899H354.488C344.294 13.3899 334.518 17.4393 327.31 24.6473C320.102 31.8552 316.053 41.6314 316.053 51.825V538.958C316.053 549.151 320.102 558.927 327.31 566.135C334.518 573.343 344.294 577.393 354.488 577.393H543.795C548.842 577.393 553.84 576.399 558.503 574.467C563.166 572.535 567.403 569.704 570.972 566.135C574.541 562.566 577.372 558.329 579.304 553.666C581.236 549.003 582.23 544.005 582.23 538.958V51.825C582.23 46.7777 581.236 41.7797 579.304 37.1165C577.372 32.4534 574.541 28.2163 570.972 24.6473C567.403 21.0782 563.166 18.2471 558.503 16.3156C553.84 14.3841 548.842 13.3899 543.795 13.3899Z" fill="white"/>
<path d="M459.077 542.89C442.348 542.897 426.125 537.155 413.127 526.625C400.128 516.095 391.144 501.417 387.68 485.052C384.215 468.686 386.482 451.626 394.098 436.733C401.715 421.839 414.22 410.016 429.517 403.244C444.814 396.473 461.973 395.166 478.119 399.541C494.266 403.916 508.417 413.707 518.203 427.275C527.989 440.843 532.814 457.361 531.87 474.063C530.926 490.765 524.269 506.635 513.016 519.013L528.25 536.089L520.648 539.313C508.888 544.301 497.381 539.448 490.922 535.574C480.996 540.386 470.108 542.887 459.077 542.89ZM459.077 408.991C449.774 408.994 440.595 411.124 432.241 415.217C423.887 419.31 416.579 425.259 410.876 432.609C405.173 439.959 401.226 448.515 399.336 457.624C397.446 466.733 397.664 476.154 399.972 485.166C402.28 494.178 406.618 502.543 412.654 509.622C418.689 516.701 426.264 522.306 434.798 526.01C443.331 529.714 452.599 531.417 461.892 530.991C471.185 530.565 480.258 528.02 488.417 523.55L491.671 521.762L494.697 523.915C498.154 526.43 502.08 528.226 506.244 529.198L496.658 518.453L500.86 514.504C506.963 508.819 511.824 501.932 515.137 494.277C518.449 486.622 520.142 478.364 520.109 470.023C520.09 453.842 513.654 438.329 502.213 426.887C490.771 415.446 475.258 409.01 459.077 408.991Z" fill="#E6E6E6"/>
<path d="M526.026 470.023C526.02 455.356 521.196 441.097 512.295 429.439C503.395 417.781 490.911 409.37 476.764 405.499C462.617 401.629 447.59 402.513 433.994 408.016C420.399 413.518 408.987 423.335 401.515 435.957C394.043 448.578 390.925 463.304 392.639 477.871C394.353 492.437 400.805 506.037 411.003 516.579C421.2 527.121 434.579 534.021 449.081 536.218C463.582 538.414 478.404 535.786 491.266 528.737C495.894 532.029 507.184 538.597 518.337 533.866L504.912 518.817C511.586 512.564 516.903 505.006 520.536 496.612C524.168 488.219 526.036 479.169 526.026 470.023Z" fill="white"/>
<path d="M472.434 456.334H424.596V460.777H472.434V456.334Z" fill="#005C83"/>
<path d="M507.975 471.703H424.596V476.145H507.975V471.703Z" fill="#E6E6E6"/>
<path d="M507.893 487.071H424.596V491.513H507.893V487.071Z" fill="#E6E6E6"/>
<path d="M459.077 218.996C442.348 219.004 426.125 213.262 413.127 202.732C400.128 192.202 391.144 177.524 387.68 161.158C384.215 144.793 386.482 127.733 394.099 112.839C401.715 97.9457 414.22 86.1225 429.517 79.3513C444.814 72.5801 461.973 71.2725 478.119 75.6475C494.266 80.0225 508.418 89.8143 518.203 103.382C527.989 116.949 532.814 133.468 531.87 150.17C530.926 166.872 524.269 182.742 513.016 195.12L528.25 212.196L520.648 215.42C508.888 220.408 497.381 215.555 490.922 211.681C480.996 216.493 470.108 218.994 459.077 218.996ZM459.077 85.0981C449.774 85.101 440.595 87.2305 432.241 91.3239C423.887 95.4172 416.579 101.366 410.876 108.716C405.173 116.066 401.226 124.622 399.336 133.731C397.446 142.84 397.664 152.26 399.972 161.272C402.28 170.284 406.618 178.65 412.654 185.729C418.689 192.808 426.264 198.413 434.798 202.117C443.331 205.82 452.599 207.524 461.892 207.098C471.185 206.672 480.258 204.126 488.417 199.657L491.671 197.869L494.697 200.022C498.154 202.537 502.08 204.333 506.244 205.305L496.658 194.56L500.86 190.611C506.963 184.926 511.824 178.039 515.137 170.384C518.449 162.729 520.142 154.471 520.109 146.13C520.09 129.949 513.654 114.436 502.213 102.994C490.771 91.5525 475.258 85.1164 459.077 85.0981V85.0981Z" fill="#E6E6E6"/>
<path d="M526.026 146.13C526.02 131.463 521.196 117.204 512.295 105.546C503.395 93.8878 490.911 85.4766 476.764 81.6059C462.617 77.7352 447.59 78.6193 433.994 84.1222C420.399 89.6251 408.987 99.4421 401.515 112.063C394.043 124.685 390.925 139.411 392.639 153.977C394.353 168.544 400.805 182.144 411.003 192.686C421.2 203.228 434.579 210.128 449.081 212.324C463.582 214.521 478.404 211.892 491.266 204.843C495.894 208.136 507.184 214.704 518.337 209.973L504.912 194.923C511.586 188.67 516.904 181.113 520.536 172.719C524.168 164.326 526.036 155.275 526.026 146.13Z" fill="white"/>
<path d="M472.434 132.441H424.596V136.884H472.434V132.441Z" fill="#005C83"/>
<path d="M507.975 147.809H424.596V152.252H507.975V147.809Z" fill="#E6E6E6"/>
<path d="M507.893 163.177H424.596V167.62H507.893V163.177Z" fill="#E6E6E6"/>
<path d="M551.81 225.221C557.638 225.221 562.363 220.496 562.363 214.668C562.363 208.839 557.638 204.115 551.81 204.115C545.982 204.115 541.257 208.839 541.257 214.668C541.257 220.496 545.982 225.221 551.81 225.221Z" fill="#E6E6E6"/>
<path d="M551.81 549.114C557.638 549.114 562.363 544.389 562.363 538.561C562.363 532.733 557.638 528.008 551.81 528.008C545.982 528.008 541.257 532.733 541.257 538.561C541.257 544.389 545.982 549.114 551.81 549.114Z" fill="#E6E6E6"/>
<path d="M318.758 386.405C311.035 391.037 297.276 396.84 283.215 390.876L274.126 387.021L292.34 366.604C277.806 350.578 269.765 329.712 269.787 308.077C269.809 286.443 277.893 265.593 292.46 249.597C307.027 233.602 327.032 223.609 348.57 221.568C370.108 219.528 391.634 225.588 408.945 238.563C426.256 251.539 438.111 270.501 442.195 291.746C446.278 312.992 442.299 334.997 431.032 353.466C419.765 371.936 402.02 385.544 381.261 391.634C360.501 397.725 338.217 395.86 318.758 386.405H318.758Z" fill="#005C83"/>
<path opacity="0.1" d="M430.207 307.624C430.206 287.619 422.714 268.34 409.208 253.583C395.702 238.825 377.16 229.66 357.234 227.891C359.565 227.686 361.924 227.576 364.309 227.576C385.53 227.589 405.877 236.029 420.878 251.04C435.879 266.05 444.306 286.403 444.306 307.624C444.306 328.846 435.879 349.198 420.878 364.209C405.877 379.22 385.53 387.659 364.309 387.673C361.928 387.673 359.573 387.561 357.245 387.357C377.169 385.585 395.708 376.419 409.212 361.662C422.716 346.905 430.206 327.627 430.207 307.624Z" fill="black"/>
<path d="M368.069 291.662H310.87V296.973H368.069V291.662Z" fill="white"/>
<path d="M410.563 310.037H310.87V315.348H410.563V310.037Z" fill="white"/>
<path d="M410.465 328.412H310.87V333.723H410.465V328.412Z" fill="white"/>
<path d="M0.811762 633H310.093C310.308 633 310.515 632.915 310.667 632.762C310.819 632.61 310.905 632.404 310.905 632.188C310.905 631.973 310.819 631.766 310.667 631.614C310.515 631.462 310.308 631.376 310.093 631.376H0.811762C0.59647 631.376 0.389994 631.462 0.237759 631.614C0.0855241 631.766 0 631.973 0 632.188C0 632.404 0.0855241 632.61 0.237759 632.762C0.389994 632.915 0.59647 633 0.811762 633Z" fill="#CCCCCC"/>
<path d="M149.19 283.727L150.412 277.615C150.412 277.615 168.392 271.503 170.404 283.727H149.19Z" fill="#E6E6E6"/>
<path d="M183.697 620.266L195.485 620.265L201.092 574.799L183.695 574.8L183.697 620.266Z" fill="#9F616A"/>
<path d="M180.69 616.417L203.904 616.417H203.905C207.828 616.417 211.591 617.975 214.365 620.75C217.139 623.524 218.698 627.287 218.698 631.21V631.691L180.691 631.692L180.69 616.417Z" fill="#2F2E41"/>
<path d="M126.874 620.266L138.661 620.265L144.269 574.799L126.871 574.8L126.874 620.266Z" fill="#9F616A"/>
<path d="M123.867 616.417L147.08 616.417H147.081C151.005 616.417 154.768 617.975 157.542 620.75C160.316 623.524 161.875 627.287 161.875 631.21V631.691L123.867 631.692L123.867 616.417Z" fill="#2F2E41"/>
<path d="M132.076 309.398L118.629 308.175L110.073 348.515L111.295 385.187L124.742 434.083L143.078 423.082L133.299 372.963L132.076 309.398Z" fill="#2F2E41"/>
<path d="M123.565 429.805L126.575 455.475L129.402 515.373L122.908 604.633L146.133 603.387L157.518 510.484L164.47 467.699L174.249 516.596L180.361 608.276L204.198 606.366V516.273L204.809 450.586L196.252 424.915L123.565 429.805Z" fill="#2F2E41"/>
<path d="M173.638 284.949C173.638 284.949 165.081 272.725 149.19 281.282L141.855 291.062L118.63 308.175L123.519 365.628L117.407 437.751L204.198 436.528L189.529 364.406V287.394L173.638 284.949Z" fill="#2F2E41"/>
<path opacity="0.25" d="M126.575 328.465L119.566 412.271L128.409 366.851L126.575 328.465Z" fill="black"/>
<path d="M272.47 398.731C271.222 399.155 269.896 399.3 268.586 399.156C267.276 399.012 266.013 398.583 264.887 397.898C263.76 397.214 262.798 396.291 262.067 395.194C261.336 394.097 260.855 392.853 260.656 391.55L240.656 386.607L240.695 373.72L268.842 381.097C271.053 380.909 273.256 381.539 275.034 382.867C276.812 384.195 278.041 386.129 278.488 388.303C278.935 390.476 278.57 392.738 277.46 394.66C276.351 396.582 274.575 398.031 272.47 398.731Z" fill="#9F616A"/>
<path d="M251.555 373.566L248.192 392.833L256.621 394.305L259.984 375.037L251.555 373.566Z" fill="#E6E6E6"/>
<path d="M171.808 267.822C183.704 261.319 188.076 246.404 181.573 234.509C175.07 222.613 160.156 218.241 148.26 224.744C136.364 231.247 131.993 246.161 138.495 258.057C144.998 269.953 159.913 274.324 171.808 267.822Z" fill="#9F616A"/>
<path d="M161.868 267.936C155.862 269.378 149.535 268.536 144.115 265.575C138.696 262.613 134.57 257.743 132.539 251.91C130.509 246.077 130.719 239.698 133.128 234.011C135.538 228.324 139.975 223.736 145.577 221.137C149.892 219.211 154.61 218.364 159.325 218.67C166.667 219.056 173.802 221.769 181.151 221.569L182.216 223.281L186.23 222.308L187.09 225.495L188.148 225.458C190.042 228.978 186.994 234.017 182.998 233.975C181.415 233.958 179.919 233.298 178.372 232.967C176.824 232.635 175.002 232.718 173.935 233.887C172.548 235.405 173.152 237.775 173.441 239.812C173.73 241.848 173.008 244.59 170.953 244.657C169.903 244.691 168.904 243.938 167.872 244.136C166.67 244.366 166.063 245.818 166.238 247.029C166.536 248.217 167.021 249.35 167.676 250.385C170.656 256.333 168.14 264.424 162.312 267.634" fill="#2F2E41"/>
<path d="M183.695 292.117L189.529 287.394C189.529 287.394 201.305 286.576 201.092 299.059L219.933 357.996L256.079 370.801L251.208 395.965L200.067 376.483L174.091 333.428L183.695 292.117Z" fill="#2F2E41"/>
</g>
<defs>
<clipPath id="clip0">
<rect width="596.431" height="633" fill="white"/>
</clipPath>
</defs>
</svg>
